<svg xmlns="http://www.w3.org/2000/svg" xmlns:xlink="http://www.w3.org/1999/xlink" width="300" zoomAndPan="magnify" viewBox="0 0 224.87999 225" height="300" preserveAspectRatio="xMidYMid meet" version="1.0"><defs><clipPath id="5d442ab671"><path d="M 4 2.882812 L 219 2.882812 L 219 221 L 4 221 Z M 4 2.882812 " clip-rule="nonzero"/></clipPath></defs><g clip-path="url(#5d442ab671)"><path fill="#545454" d="M 217.214844 66.707031 L 202.933594 23.851562 C 198.753906 11.308594 187.070312 2.890625 173.847656 2.890625 L 49.898438 2.890625 C 36.679688 2.890625 24.996094 11.320312 20.8125 23.851562 L 6.53125 66.714844 C 2.6875 78.265625 6.0625 90.71875 14.324219 98.554688 L 14.324219 189.628906 C 14.324219 206.539062 28.070312 220.285156 44.984375 220.285156 L 178.765625 220.285156 C 195.675781 220.285156 209.421875 206.539062 209.421875 189.628906 L 209.421875 98.554688 C 217.671875 90.71875 221.0625 78.265625 217.214844 66.707031 Z M 86.789062 203.550781 L 86.789062 167.320312 C 86.789062 159.636719 93.042969 153.382812 100.726562 153.382812 L 123.023438 153.382812 C 130.703125 153.382812 136.957031 159.636719 136.957031 167.320312 L 136.957031 203.550781 Z M 192.699219 189.617188 C 192.699219 197.296875 186.445312 203.550781 178.765625 203.550781 L 153.679688 203.550781 L 153.679688 167.320312 C 153.679688 150.40625 139.933594 136.660156 123.023438 136.660156 L 100.726562 136.660156 C 83.8125 136.660156 70.066406 150.40625 70.066406 167.320312 L 70.066406 203.550781 L 44.984375 203.550781 C 37.300781 203.550781 31.046875 197.296875 31.046875 189.617188 L 31.046875 106.929688 C 44.660156 110.25 60.636719 108.558594 71.75 101.835938 C 75.863281 99.347656 81.003906 99.347656 85.128906 101.835938 C 100.011719 110.796875 123.722656 110.796875 138.609375 101.835938 C 142.734375 99.335938 147.871094 99.347656 151.996094 101.835938 C 159.433594 106.316406 168.941406 108.789062 178.765625 108.789062 C 183.589844 108.789062 188.273438 108.15625 192.699219 107.039062 Z M 195.410156 88.355469 C 185.53125 93.449219 169.835938 93.070312 160.636719 87.519531 C 155.910156 84.664062 150.613281 83.238281 145.308594 83.238281 C 140 83.238281 134.707031 84.664062 129.980469 87.507812 C 120.234375 93.382812 103.511719 93.382812 93.769531 87.507812 C 84.304688 81.8125 72.566406 81.824219 63.109375 87.507812 C 53.914062 93.050781 38.214844 93.429688 28.339844 88.34375 C 22.785156 85.480469 20.234375 78.445312 22.386719 71.980469 L 36.667969 29.125 C 38.5625 23.425781 43.878906 19.59375 49.890625 19.59375 L 173.824219 19.59375 C 179.835938 19.59375 185.152344 23.425781 187.046875 29.125 L 201.328125 71.980469 C 203.480469 78.457031 200.925781 85.480469 195.386719 88.34375 Z M 195.410156 88.355469 " fill-opacity="1" fill-rule="nonzero"/></g></svg>