<svg xmlns="http://www.w3.org/2000/svg" xmlns:xlink="http://www.w3.org/1999/xlink" width="300" zoomAndPan="magnify" viewBox="0 0 224.87999 225" height="300" preserveAspectRatio="xMidYMid meet" version="1.0"><defs><clipPath id="fa9f72fa36"><path d="M 3.023438 2.679688 L 222.65625 2.679688 L 222.65625 219.3125 L 3.023438 219.3125 Z M 3.023438 2.679688 " clip-rule="nonzero"/></clipPath></defs><g clip-path="url(#fa9f72fa36)"><path fill="#545454" d="M 26.882812 114.96875 C 12.386719 103.433594 3.097656 85.636719 3.097656 65.671875 C 3.097656 52.144531 7.359375 39.628906 14.609375 29.371094 L 8.992188 8.394531 C 8.699219 7.300781 8.949219 6.132812 9.664062 5.25 C 10.375 4.371094 11.46875 3.882812 12.601562 3.945312 C 12.601562 3.945312 46.632812 5.753906 46.632812 5.753906 C 52.757812 3.78125 59.285156 2.695312 66.074219 2.695312 C 100.855469 2.695312 129.050781 30.890625 129.050781 65.671875 C 129.050781 68.558594 128.855469 71.402344 128.480469 74.1875 C 137.671875 68.941406 148.3125 65.941406 159.652344 65.941406 C 166.441406 65.941406 172.964844 67.03125 179.09375 69 L 213.125 67.191406 C 214.253906 67.132812 215.347656 67.617188 216.0625 68.5 C 216.777344 69.378906 217.023438 70.546875 216.730469 71.644531 C 216.730469 71.644531 211.113281 92.617188 211.113281 92.617188 C 218.367188 102.878906 222.628906 115.394531 222.628906 128.921875 C 222.628906 163.699219 194.429688 191.898438 159.652344 191.898438 C 149.164062 191.898438 139.277344 189.332031 130.578125 184.796875 C 120.175781 205.257812 98.925781 219.273438 74.40625 219.273438 C 67.613281 219.273438 61.089844 218.1875 54.964844 216.214844 L 20.933594 218.023438 C 19.800781 218.082031 18.707031 217.597656 17.992188 216.71875 C 17.28125 215.835938 17.03125 214.667969 17.324219 213.570312 C 17.324219 213.570312 22.941406 192.597656 22.941406 192.597656 C 15.691406 182.339844 11.429688 169.820312 11.429688 156.296875 C 11.429688 140.484375 17.257812 126.03125 26.882812 114.96875 Z M 126.332031 84.039062 C 123.71875 92.609375 119.332031 100.40625 113.597656 106.996094 C 128.089844 118.535156 137.382812 136.332031 137.382812 156.296875 C 137.382812 164.035156 135.984375 171.449219 133.433594 178.296875 C 141.25 182.457031 150.175781 184.816406 159.652344 184.816406 C 190.519531 184.816406 215.546875 159.789062 215.546875 128.921875 C 215.546875 116.363281 211.410156 104.785156 204.421875 95.457031 C 203.773438 94.589844 203.554688 93.46875 203.835938 92.417969 L 208.628906 74.523438 L 178.808594 76.105469 C 178.363281 76.128906 177.921875 76.070312 177.5 75.929688 C 171.890625 74.058594 165.898438 73.023438 159.652344 73.023438 C 147.164062 73.023438 135.632812 77.117188 126.332031 84.039062 Z M 107.785156 102.882812 C 113.335938 96.664062 117.519531 89.199219 119.855469 80.957031 C 121.234375 76.097656 121.96875 70.972656 121.96875 65.671875 C 121.96875 34.800781 96.945312 9.777344 66.074219 9.777344 C 59.828125 9.777344 53.835938 10.8125 48.226562 12.683594 C 47.804688 12.824219 47.359375 12.882812 46.917969 12.859375 L 17.09375 11.273438 L 21.886719 29.171875 C 22.167969 30.222656 21.953125 31.339844 21.300781 32.210938 C 14.316406 41.539062 10.179688 53.113281 10.179688 65.671875 C 10.179688 83.648438 18.667969 99.644531 31.851562 109.871094 C 43.058594 99.589844 58 93.316406 74.40625 93.316406 C 86.664062 93.316406 98.109375 96.820312 107.785156 102.882812 Z M 169.410156 162.105469 C 162.714844 158.167969 152.65625 151.15625 145.609375 142.949219 C 140.507812 137.003906 137.023438 130.398438 136.902344 123.875 C 136.726562 114.078125 142.253906 107.027344 149.789062 104.460938 C 156.28125 102.25 164.46875 103.367188 171.835938 109.460938 C 179.203125 103.375 187.394531 102.257812 193.890625 104.46875 C 201.425781 107.03125 206.960938 114.078125 206.78125 123.875 C 206.664062 130.398438 203.179688 137.003906 198.074219 142.949219 C 191.027344 151.15625 180.972656 158.167969 174.277344 162.105469 C 172.738281 163.023438 170.949219 163.023438 169.410156 162.105469 Z M 171.84375 155.3125 C 177.992188 151.578125 186.585938 145.460938 192.703125 138.335938 C 196.640625 133.746094 199.609375 128.78125 199.703125 123.746094 C 199.816406 117.457031 196.445312 112.816406 191.609375 111.171875 C 186.484375 109.425781 179.996094 111.019531 174.359375 116.746094 C 173.695312 117.421875 172.785156 117.804688 171.835938 117.804688 C 170.886719 117.804688 169.976562 117.421875 169.3125 116.746094 C 163.675781 111.011719 157.191406 109.421875 152.070312 111.167969 C 147.234375 112.8125 143.871094 117.457031 143.984375 123.746094 C 144.074219 128.78125 147.042969 133.746094 150.984375 138.335938 C 157.097656 145.460938 165.695312 151.578125 171.84375 155.3125 Z M 74.40625 100.398438 C 43.535156 100.398438 18.511719 125.425781 18.511719 156.296875 C 18.511719 168.851562 22.648438 180.429688 29.632812 189.757812 C 30.285156 190.625 30.5 191.746094 30.21875 192.796875 L 25.425781 210.691406 L 55.25 209.109375 C 55.691406 209.085938 56.136719 209.144531 56.554688 209.285156 C 62.167969 211.15625 68.160156 212.191406 74.40625 212.191406 C 105.273438 212.191406 130.300781 187.164062 130.300781 156.296875 C 130.300781 125.425781 105.273438 100.398438 74.40625 100.398438 Z M 65.0625 190.847656 C 65 192.75 63.441406 194.273438 61.523438 194.273438 L 45.050781 194.273438 C 43.09375 194.273438 41.507812 192.6875 41.507812 190.734375 L 41.507812 144.929688 C 41.507812 142.972656 43.09375 141.386719 45.050781 141.386719 L 61.523438 141.386719 C 63.351562 141.386719 64.855469 142.773438 65.042969 144.550781 C 65.773438 143.671875 66.515625 142.738281 67.230469 141.765625 C 69.480469 138.71875 71.582031 135.3125 71.972656 132.246094 C 72.417969 128.699219 72.476562 126.339844 72.382812 124.800781 C 72.042969 123.167969 72.476562 121.457031 73.578125 120.179688 C 74.789062 118.777344 76.636719 118.097656 78.460938 118.378906 C 82.433594 118.949219 88.472656 121.308594 89.589844 129.757812 C 90.3125 135.25 89.921875 140.125 89.40625 143.457031 L 100.445312 143.457031 C 107.074219 143.457031 112.511719 148.703125 112.746094 155.328125 L 112.746094 155.332031 C 112.949219 161.242188 112.429688 169.011719 110.578125 175.714844 C 108.105469 184.65625 99.96875 190.847656 90.691406 190.847656 C 82.628906 190.847656 70.882812 190.847656 65.0625 190.847656 Z M 65.0625 154.972656 L 65.0625 183.765625 C 70.882812 183.765625 82.632812 183.765625 90.691406 183.765625 C 96.785156 183.765625 102.128906 179.699219 103.753906 173.828125 C 105.410156 167.824219 105.851562 160.867188 105.671875 155.578125 C 105.570312 152.765625 103.257812 150.535156 100.445312 150.535156 L 85.050781 150.535156 C 83.925781 150.535156 82.871094 150.003906 82.203125 149.101562 C 81.535156 148.199219 81.335938 147.035156 81.664062 145.960938 C 81.664062 145.960938 83.691406 139.207031 82.566406 130.683594 C 82.226562 128.089844 80.894531 126.722656 79.5 126.019531 C 79.507812 127.757812 79.382812 130.074219 78.996094 133.132812 C 78.480469 137.226562 75.933594 141.898438 72.929688 145.96875 C 70.015625 149.921875 66.746094 153.308594 65.0625 154.972656 Z M 57.980469 148.46875 C 57.980469 148.46875 48.589844 148.46875 48.589844 148.46875 L 48.589844 187.191406 C 48.589844 187.191406 57.980469 187.191406 57.980469 187.191406 Z M 90.472656 54.9375 C 92.425781 54.9375 94.015625 56.523438 94.015625 58.480469 C 94.015625 60.433594 92.425781 62.019531 90.472656 62.019531 L 43.070312 62.019531 C 41.113281 62.019531 39.527344 60.433594 39.527344 58.480469 C 39.527344 56.523438 41.113281 54.9375 43.070312 54.9375 Z M 90.472656 36.308594 C 92.425781 36.308594 94.015625 37.894531 94.015625 39.851562 C 94.015625 41.804688 92.425781 43.390625 90.472656 43.390625 L 43.070312 43.390625 C 41.113281 43.390625 39.527344 41.804688 39.527344 39.851562 C 39.527344 37.894531 41.113281 36.308594 43.070312 36.308594 Z M 90.472656 73.566406 C 92.425781 73.566406 94.015625 75.152344 94.015625 77.109375 C 94.015625 79.0625 92.425781 80.648438 90.472656 80.648438 L 43.070312 80.648438 C 41.113281 80.648438 39.527344 79.0625 39.527344 77.109375 C 39.527344 75.152344 41.113281 73.566406 43.070312 73.566406 Z M 90.472656 73.566406 " fill-opacity="1" fill-rule="evenodd"/></g></svg>