<svg xmlns="http://www.w3.org/2000/svg" xmlns:xlink="http://www.w3.org/1999/xlink" width="300" zoomAndPan="magnify" viewBox="0 0 224.87999 225" height="300" preserveAspectRatio="xMidYMid meet" version="1.0"><defs><clipPath id="e3b60cc1e9"><path d="M 3.828125 6 L 220.464844 6 L 220.464844 186.644531 L 3.828125 186.644531 Z M 3.828125 6 " clip-rule="nonzero"/></clipPath></defs><g clip-path="url(#e3b60cc1e9)"><path fill="#545454" d="M 112.121094 186.738281 C 104.144531 186.738281 3.828125 131.691406 3.828125 65.90625 C 3.796875 61.878906 4.167969 57.890625 4.945312 53.9375 C 5.722656 49.988281 6.890625 46.15625 8.449219 42.441406 C 10.003906 38.730469 11.917969 35.210938 14.191406 31.886719 C 16.464844 28.5625 19.046875 25.5 21.941406 22.703125 C 24.644531 20.035156 27.589844 17.667969 30.777344 15.605469 C 33.964844 13.539062 37.328125 11.824219 40.867188 10.449219 C 44.40625 9.078125 48.050781 8.078125 51.796875 7.453125 C 55.542969 6.832031 59.3125 6.59375 63.105469 6.742188 C 65.503906 6.738281 67.894531 6.878906 70.273438 7.160156 C 72.65625 7.445312 75.011719 7.871094 77.339844 8.4375 C 79.671875 9.007812 81.957031 9.714844 84.203125 10.558594 C 86.445312 11.402344 88.632812 12.378906 90.757812 13.488281 C 92.886719 14.597656 94.9375 15.832031 96.914062 17.1875 C 98.894531 18.542969 100.78125 20.015625 102.582031 21.597656 C 104.382812 23.183594 106.078125 24.871094 107.675781 26.660156 C 109.269531 28.453125 110.753906 30.332031 112.121094 32.300781 C 113.496094 30.328125 114.984375 28.441406 116.589844 26.648438 C 118.191406 24.855469 119.898438 23.164062 121.703125 21.578125 C 123.511719 19.992188 125.40625 18.519531 127.394531 17.160156 C 129.378906 15.800781 131.4375 14.566406 133.574219 13.460938 C 135.707031 12.351562 137.902344 11.375 140.152344 10.53125 C 142.40625 9.6875 144.703125 8.984375 147.039062 8.417969 C 149.378906 7.851562 151.742188 7.429688 154.128906 7.148438 C 156.519531 6.867188 158.917969 6.734375 161.320312 6.742188 C 165.101562 6.613281 168.851562 6.863281 172.582031 7.496094 C 176.308594 8.125 179.933594 9.121094 183.460938 10.484375 C 186.988281 11.847656 190.339844 13.550781 193.523438 15.59375 C 196.703125 17.632812 199.652344 19.972656 202.359375 22.609375 C 205.253906 25.414062 207.835938 28.484375 210.105469 31.816406 C 212.375 35.144531 214.285156 38.671875 215.835938 42.390625 C 217.386719 46.109375 218.550781 49.949219 219.320312 53.902344 C 220.09375 57.859375 220.457031 61.851562 220.417969 65.882812 C 220.417969 131.691406 120.160156 186.738281 112.121094 186.738281 Z M 61.246094 18.140625 C 58.34375 18.132812 55.464844 18.402344 52.617188 18.953125 C 49.765625 19.503906 46.992188 20.324219 44.300781 21.414062 C 41.609375 22.503906 39.050781 23.84375 36.617188 25.429688 C 34.1875 27.019531 31.933594 28.824219 29.851562 30.851562 C 27.511719 33.125 25.421875 35.609375 23.585938 38.304688 C 21.75 41.003906 20.203125 43.855469 18.945312 46.867188 C 17.691406 49.878906 16.746094 52.984375 16.121094 56.1875 C 15.496094 59.386719 15.199219 62.621094 15.226562 65.882812 C 15.226562 120.074219 98.683594 170.515625 112.121094 175.167969 C 125.5625 170.515625 209.015625 120.074219 209.015625 65.882812 C 209.046875 62.621094 208.75 59.386719 208.121094 56.1875 C 207.496094 52.984375 206.554688 49.878906 205.296875 46.867188 C 204.042969 43.855469 202.496094 41.003906 200.65625 38.304688 C 198.820312 35.609375 196.734375 33.125 194.390625 30.851562 C 192.226562 28.734375 189.867188 26.859375 187.320312 25.21875 C 184.773438 23.582031 182.089844 22.214844 179.265625 21.125 C 176.4375 20.03125 173.535156 19.234375 170.546875 18.730469 C 167.558594 18.230469 164.554688 18.03125 161.527344 18.140625 C 159.210938 18.097656 156.90625 18.222656 154.609375 18.515625 C 152.316406 18.808594 150.050781 19.269531 147.824219 19.894531 C 145.59375 20.519531 143.421875 21.304688 141.308594 22.246094 C 139.195312 23.191406 137.160156 24.28125 135.207031 25.523438 C 133.25 26.765625 131.398438 28.140625 129.644531 29.652344 C 127.894531 31.164062 126.257812 32.796875 124.746094 34.550781 C 123.230469 36.300781 121.855469 38.152344 120.613281 40.105469 C 119.371094 42.058594 118.277344 44.09375 117.332031 46.207031 C 117.078125 46.675781 116.765625 47.101562 116.394531 47.488281 C 116.027344 47.871094 115.613281 48.199219 115.152344 48.472656 C 114.695312 48.746094 114.207031 48.953125 113.695312 49.09375 C 113.179688 49.234375 112.65625 49.304688 112.121094 49.304688 C 111.589844 49.304688 111.066406 49.234375 110.550781 49.09375 C 110.035156 48.953125 109.550781 48.746094 109.089844 48.472656 C 108.632812 48.199219 108.21875 47.871094 107.847656 47.488281 C 107.480469 47.101562 107.167969 46.675781 106.914062 46.207031 C 105.976562 44.097656 104.886719 42.070312 103.652344 40.121094 C 102.417969 38.171875 101.046875 36.324219 99.542969 34.578125 C 98.039062 32.828125 96.414062 31.199219 94.671875 29.6875 C 92.925781 28.175781 91.082031 26.800781 89.136719 25.5625 C 87.191406 24.320312 85.167969 23.226562 83.0625 22.28125 C 80.957031 21.339844 78.796875 20.550781 76.574219 19.921875 C 74.355469 19.296875 72.101562 18.832031 69.8125 18.535156 C 67.527344 18.234375 65.230469 18.105469 62.921875 18.140625 C 62.363281 18.140625 61.792969 18.140625 61.246094 18.140625 Z M 61.246094 18.140625 " fill-opacity="1" fill-rule="nonzero"/></g></svg>