<svg xmlns="http://www.w3.org/2000/svg" xmlns:xlink="http://www.w3.org/1999/xlink" width="300" zoomAndPan="magnify" viewBox="0 0 224.87999 225" height="300" preserveAspectRatio="xMidYMid meet" version="1.0"><defs><clipPath id="d4f1798943"><path d="M 6 3 L 222.308594 3 L 222.308594 220 L 6 220 Z M 6 3 " clip-rule="nonzero"/></clipPath></defs><g clip-path="url(#d4f1798943)"><path fill="#545454" d="M 173.652344 156.871094 C 174.75 159.644531 174.503906 160.441406 174.402344 160.707031 C 174.132812 161.339844 173.695312 161.816406 173.082031 162.132812 C 171.371094 161.730469 169.109375 161.886719 168.035156 160.835938 C 166.015625 158.914062 163.859375 157.160156 161.566406 155.574219 C 159.277344 153.988281 156.875 152.589844 154.363281 151.378906 C 151.851562 150.167969 149.265625 149.160156 146.59375 148.355469 C 143.925781 147.546875 141.210938 146.953125 138.453125 146.570312 C 119.273438 143.375 100.792969 146.605469 82.691406 152.914062 C 78.65625 154.324219 74.714844 156.011719 70.300781 157.742188 L 49.097656 112.667969 C 59.476562 105.4375 69.957031 99.046875 79.375 91.359375 C 92.964844 80.261719 103.570312 66.703125 107.484375 49.050781 C 108.304688 44.679688 108.640625 40.265625 108.496094 35.820312 C 108.496094 33.390625 107.675781 30.800781 110.640625 29.851562 C 114.003906 28.773438 114.78125 31.6875 115.835938 33.917969 C 126.714844 57.058594 137.601562 80.191406 148.484375 103.324219 C 156.589844 120.546875 164.703125 137.769531 172.816406 154.984375 C 173.128906 155.625 173.320312 156.03125 173.652344 156.871094 Z M 73.898438 166.378906 C 75.609375 169.71875 78.253906 174.445312 79.445312 176.761719 C 94.683594 172.0625 94.375 168.414062 89.660156 159.382812 Z M 66.304688 168.992188 L 51.316406 176.085938 C 60.03125 189.621094 68.574219 202.769531 77.011719 215.980469 C 78.902344 218.941406 81.230469 220.488281 84.640625 218.976562 C 87.585938 217.667969 88.058594 214.675781 86.171875 210.648438 C 80.109375 197.734375 74.03125 184.820312 67.9375 171.90625 C 67.488281 170.949219 66.902344 170.058594 66.304688 169.007812 Z M 162.863281 6.664062 C 162.40625 5.867188 161.785156 5.234375 161 4.757812 C 160.214844 4.28125 159.363281 4.023438 158.445312 3.988281 C 157.558594 3.980469 156.722656 4.183594 155.9375 4.601562 C 155.15625 5.019531 154.519531 5.597656 154.03125 6.339844 C 151.242188 10.320312 148.488281 14.351562 145.777344 18.429688 C 145.265625 19.140625 144.96875 19.9375 144.890625 20.8125 C 144.8125 21.683594 144.964844 22.519531 145.339844 23.3125 C 145.476562 23.59375 145.636719 23.859375 145.824219 24.109375 C 146.007812 24.359375 146.21875 24.589844 146.449219 24.800781 C 146.679688 25.011719 146.929688 25.195312 147.195312 25.359375 C 147.464844 25.519531 147.742188 25.65625 148.035156 25.761719 C 148.328125 25.871094 148.628906 25.949219 148.9375 25.996094 C 149.246094 26.046875 149.558594 26.066406 149.867188 26.054688 C 150.179688 26.042969 150.488281 26.003906 150.792969 25.933594 C 151.097656 25.863281 151.390625 25.765625 151.675781 25.636719 C 152.472656 25.226562 153.132812 24.652344 153.652344 23.921875 C 156.414062 19.96875 159.347656 15.726562 162.109375 11.484375 C 162.597656 10.609375 162.867188 9.667969 162.921875 8.664062 C 162.953125 8.347656 163.007812 8.027344 163.066406 7.707031 L 163.183594 7.125 Z M 205.902344 64.519531 C 205.800781 63.605469 205.488281 62.773438 204.960938 62.019531 C 204.433594 61.265625 203.757812 60.6875 202.9375 60.277344 C 202.140625 59.902344 201.304688 59.742188 200.425781 59.796875 C 199.546875 59.855469 198.738281 60.121094 197.996094 60.597656 C 193.78125 63.066406 189.597656 65.625 185.441406 68.210938 C 184.6875 68.65625 184.097656 69.261719 183.667969 70.023438 C 183.234375 70.789062 183.023438 71.605469 183.03125 72.484375 C 183.066406 73.3125 183.289062 74.085938 183.699219 74.808594 C 184.125 75.558594 184.710938 76.148438 185.460938 76.578125 C 186.214844 77.003906 187.019531 77.207031 187.882812 77.191406 C 188.78125 77.175781 189.605469 76.925781 190.355469 76.433594 C 194.539062 73.992188 198.957031 71.347656 203.226562 68.617188 C 204.027344 68.015625 204.65625 67.269531 205.117188 66.378906 C 205.289062 66.089844 205.464844 65.828125 205.609375 65.566406 L 205.988281 65.101562 Z M 222.058594 141.847656 C 221.769531 141.015625 221.300781 140.304688 220.652344 139.710938 C 220.003906 139.117188 219.25 138.714844 218.394531 138.503906 C 213.71875 137.167969 208.953125 135.949219 204.214844 134.726562 C 203.367188 134.496094 202.519531 134.488281 201.671875 134.707031 C 200.820312 134.925781 200.082031 135.335938 199.449219 135.949219 C 198.882812 136.550781 198.476562 137.25 198.230469 138.039062 C 197.980469 138.871094 197.964844 139.703125 198.179688 140.542969 C 198.394531 141.382812 198.804688 142.109375 199.421875 142.71875 C 200.050781 143.339844 200.796875 143.757812 201.65625 143.96875 C 206.308594 145.277344 211.304688 146.640625 216.214844 147.832031 C 217.207031 147.984375 218.1875 147.925781 219.152344 147.660156 C 219.472656 147.570312 219.792969 147.511719 220.082031 147.453125 L 220.691406 147.398438 L 221.039062 146.902344 C 221.632812 146.203125 222.019531 145.40625 222.199219 144.507812 C 222.382812 143.605469 222.335938 142.71875 222.058594 141.847656 Z M 41.09375 114.921875 C 33.078125 118.84375 25.199219 122.058594 17.976562 126.371094 C 17.347656 126.761719 16.742188 127.183594 16.152344 127.632812 C 15.5625 128.078125 14.996094 128.550781 14.449219 129.050781 C 13.902344 129.546875 13.375 130.066406 12.875 130.613281 C 12.375 131.15625 11.898438 131.722656 11.449219 132.308594 C 10.996094 132.894531 10.574219 133.5 10.175781 134.125 C 9.78125 134.75 9.410156 135.390625 9.070312 136.046875 C 8.730469 136.707031 8.421875 137.375 8.140625 138.0625 C 7.859375 138.746094 7.609375 139.441406 7.394531 140.148438 C 7.175781 140.855469 6.988281 141.570312 6.832031 142.292969 C 6.675781 143.015625 6.554688 143.746094 6.464844 144.480469 C 6.375 145.214844 6.316406 145.949219 6.289062 146.691406 C 6.265625 147.429688 6.273438 148.167969 6.316406 148.90625 C 6.355469 149.644531 6.429688 150.382812 6.535156 151.113281 C 6.640625 151.84375 6.777344 152.570312 6.949219 153.292969 C 7.121094 154.011719 7.320312 154.722656 7.554688 155.425781 C 7.789062 156.125 8.054688 156.816406 8.347656 157.496094 C 8.613281 158.1875 8.90625 158.863281 9.234375 159.53125 C 9.5625 160.195312 9.917969 160.84375 10.300781 161.476562 C 10.6875 162.109375 11.101562 162.722656 11.539062 163.316406 C 11.980469 163.914062 12.449219 164.488281 12.941406 165.039062 C 13.4375 165.59375 13.953125 166.121094 14.496094 166.625 C 15.035156 167.132812 15.597656 167.613281 16.183594 168.066406 C 16.769531 168.519531 17.375 168.949219 17.996094 169.347656 C 18.621094 169.746094 19.261719 170.117188 19.917969 170.457031 C 20.578125 170.796875 21.25 171.109375 21.933594 171.386719 C 22.621094 171.667969 23.316406 171.917969 24.027344 172.132812 C 24.734375 172.351562 25.449219 172.535156 26.175781 172.683594 C 26.902344 172.835938 27.632812 172.953125 28.367188 173.039062 C 29.101562 173.125 29.839844 173.175781 30.582031 173.195312 C 31.320312 173.210938 32.0625 173.195312 32.800781 173.144531 C 33.539062 173.097656 34.273438 173.011719 35.007812 172.898438 C 35.738281 172.78125 36.460938 172.632812 37.179688 172.449219 C 46.039062 169.371094 54.691406 165.796875 63.136719 161.71875 Z M 161.851562 87.289062 C 159.207031 82.058594 154.585938 80.367188 147.066406 82.421875 L 156.460938 102.34375 C 163.140625 97.515625 164.644531 92.8125 161.851562 87.289062 Z M 161.851562 87.289062 " fill-opacity="1" fill-rule="nonzero"/></g></svg>