<svg xmlns="http://www.w3.org/2000/svg" xmlns:xlink="http://www.w3.org/1999/xlink" width="300" zoomAndPan="magnify" viewBox="0 0 224.87999 225" height="300" preserveAspectRatio="xMidYMid meet" version="1.0"><defs><clipPath id="3e33d8b492"><path d="M 26.410156 2.832031 L 204.8125 2.832031 L 204.8125 222.464844 L 26.410156 222.464844 Z M 26.410156 2.832031 " clip-rule="nonzero"/></clipPath></defs><g clip-path="url(#3e33d8b492)"><path fill="#545454" d="M 42.441406 96.789062 L 42.441406 152.078125 C 42.441406 156.105469 41.484375 160.148438 39.6875 163.757812 L 27.324219 188.480469 C 26.515625 190.101562 26.601562 192.027344 27.554688 193.5625 C 28.503906 195.097656 30.183594 196.046875 31.992188 196.046875 L 84.703125 196.046875 C 87.203125 210.839844 100.074219 222.160156 115.574219 222.160156 C 123.910156 222.160156 131.785156 218.917969 137.78125 212.980469 C 142.421875 208.289062 145.390625 202.402344 146.457031 196.046875 L 199.152344 196.046875 C 200.96875 196.046875 202.648438 195.097656 203.597656 193.5625 C 204.550781 192.027344 204.636719 190.101562 203.828125 188.480469 L 191.464844 163.757812 C 189.664062 160.148438 188.710938 156.105469 188.710938 152.078125 L 188.710938 96.789062 C 188.710938 77.273438 181.101562 58.914062 167.273438 45.09375 C 158.578125 36.390625 147.917969 30.078125 136.144531 26.597656 C 136.28125 25.625 136.46875 24.664062 136.46875 23.65625 C 136.46875 12.140625 127.101562 2.761719 115.574219 2.761719 C 104.050781 2.761719 94.683594 12.140625 94.683594 23.65625 C 94.683594 24.671875 94.871094 25.632812 95.007812 26.617188 C 64.246094 35.648438 42.441406 64.304688 42.441406 96.789062 Z M 130.394531 205.601562 C 126.410156 209.542969 121.136719 211.71875 115.574219 211.71875 C 105.859375 211.71875 97.667969 205.046875 95.339844 196.046875 L 135.820312 196.046875 C 134.898438 199.621094 133.046875 202.914062 130.394531 205.601562 Z M 115.574219 13.214844 C 121.335938 13.214844 126.027344 17.898438 126.027344 23.65625 C 126.027344 23.902344 126.019531 24.148438 126 24.398438 C 125.371094 24.304688 124.738281 24.269531 124.117188 24.191406 C 123.535156 24.125 122.964844 24.066406 122.390625 24.015625 C 120.113281 23.800781 117.835938 23.65625 115.574219 23.65625 C 113.308594 23.65625 111.019531 23.800781 108.742188 24.015625 C 108.1875 24.066406 107.632812 24.125 107.078125 24.191406 C 106.441406 24.261719 105.792969 24.304688 105.152344 24.398438 C 105.132812 24.148438 105.125 23.902344 105.125 23.65625 C 105.125 17.898438 109.816406 13.214844 115.574219 13.214844 Z M 102.472656 35.460938 C 109 34.113281 115.609375 33.78125 122.136719 34.445312 C 124.320312 34.675781 126.496094 35.011719 128.664062 35.453125 C 140.527344 38.019531 151.320312 43.90625 159.886719 52.472656 C 171.734375 64.320312 178.261719 80.0625 178.261719 96.789062 L 178.261719 152.078125 C 178.261719 157.726562 179.601562 163.382812 182.117188 168.433594 L 190.707031 185.597656 L 40.445312 185.597656 L 49.035156 168.433594 C 51.550781 163.382812 52.890625 157.726562 52.890625 152.078125 L 52.890625 96.789062 C 52.890625 67.359375 73.757812 41.5625 102.472656 35.460938 " fill-opacity="1" fill-rule="nonzero"/></g></svg>