<svg xmlns="http://www.w3.org/2000/svg" xmlns:xlink="http://www.w3.org/1999/xlink" width="300" zoomAndPan="magnify" viewBox="0 0 224.87999 225" height="300" preserveAspectRatio="xMidYMid meet" version="1.0"><defs><clipPath id="b871dc6303"><path d="M 3.023438 5 L 221 5 L 221 147 L 3.023438 147 Z M 3.023438 5 " clip-rule="nonzero"/></clipPath></defs><g clip-path="url(#b871dc6303)"><path fill="#545454" d="M 199.261719 43.078125 L 71.15625 43.078125 C 70.710938 43.078125 70.269531 43.121094 69.832031 43.207031 C 69.394531 43.296875 68.96875 43.425781 68.558594 43.59375 C 68.148438 43.765625 67.753906 43.972656 67.386719 44.222656 C 67.015625 44.46875 66.671875 44.75 66.355469 45.066406 C 66.042969 45.378906 65.761719 45.722656 65.511719 46.09375 C 65.265625 46.464844 65.054688 46.855469 64.886719 47.265625 C 64.714844 47.679688 64.585938 48.105469 64.5 48.539062 C 64.414062 48.976562 64.367188 49.417969 64.367188 49.863281 C 64.367188 50.308594 64.414062 50.75 64.5 51.1875 C 64.585938 51.625 64.714844 52.050781 64.886719 52.460938 C 65.054688 52.875 65.265625 53.265625 65.511719 53.636719 C 65.761719 54.007812 66.042969 54.347656 66.355469 54.664062 C 66.671875 54.980469 67.015625 55.261719 67.386719 55.507812 C 67.753906 55.753906 68.148438 55.964844 68.558594 56.136719 C 68.96875 56.304688 69.394531 56.433594 69.832031 56.519531 C 70.269531 56.609375 70.710938 56.652344 71.15625 56.652344 L 199.261719 56.652344 C 199.574219 56.652344 199.886719 56.671875 200.199219 56.710938 C 200.507812 56.75 200.816406 56.808594 201.117188 56.886719 C 201.421875 56.964844 201.71875 57.0625 202.007812 57.179688 C 202.300781 57.296875 202.582031 57.429688 202.855469 57.582031 C 203.128906 57.734375 203.390625 57.90625 203.644531 58.089844 C 203.894531 58.277344 204.132812 58.476562 204.359375 58.695312 C 204.585938 58.910156 204.796875 59.140625 204.996094 59.382812 C 205.191406 59.625 205.375 59.882812 205.539062 60.148438 C 205.703125 60.414062 205.847656 60.691406 205.980469 60.976562 C 206.109375 61.261719 206.21875 61.550781 206.3125 61.851562 C 206.402344 62.152344 206.476562 62.453125 206.53125 62.761719 C 206.582031 63.070312 206.617188 63.382812 206.628906 63.695312 C 206.644531 64.007812 206.636719 64.320312 206.613281 64.632812 C 206.585938 64.945312 206.539062 65.253906 206.476562 65.558594 C 206.410156 65.867188 206.324219 66.167969 206.222656 66.460938 C 206.117188 66.757812 205.996094 67.042969 205.855469 67.324219 C 198.097656 82.890625 187.023438 117.617188 181.492188 128.671875 C 181.1875 129.28125 180.800781 129.839844 180.339844 130.347656 C 179.878906 130.851562 179.355469 131.285156 178.773438 131.644531 C 178.191406 132.003906 177.570312 132.277344 176.914062 132.464844 C 176.253906 132.648438 175.582031 132.742188 174.898438 132.742188 L 80.585938 132.742188 C 79.847656 132.742188 79.125 132.636719 78.417969 132.417969 C 77.710938 132.203125 77.050781 131.886719 76.4375 131.472656 C 75.828125 131.058594 75.289062 130.5625 74.828125 129.984375 C 74.363281 129.410156 73.996094 128.777344 73.722656 128.089844 C 73.722656 128.011719 52.507812 32.839844 52.507812 32.839844 C 52.296875 31.871094 52.039062 30.917969 51.746094 29.972656 C 51.453125 29.027344 51.117188 28.097656 50.742188 27.179688 C 50.371094 26.265625 49.957031 25.363281 49.507812 24.484375 C 49.058594 23.601562 48.574219 22.742188 48.050781 21.898438 C 47.527344 21.058594 46.972656 20.242188 46.378906 19.449219 C 45.789062 18.65625 45.164062 17.886719 44.507812 17.148438 C 43.851562 16.40625 43.164062 15.695312 42.449219 15.011719 C 41.734375 14.328125 40.988281 13.679688 40.214844 13.058594 C 39.445312 12.4375 38.648438 11.851562 37.828125 11.300781 C 37.007812 10.75 36.164062 10.230469 35.296875 9.75 C 34.433594 9.269531 33.550781 8.824219 32.648438 8.417969 C 31.746094 8.011719 30.828125 7.644531 29.894531 7.316406 C 28.960938 6.988281 28.011719 6.699219 27.054688 6.453125 C 26.097656 6.203125 25.128906 5.996094 24.15625 5.828125 C 23.179688 5.660156 22.199219 5.535156 21.210938 5.453125 C 20.226562 5.371094 19.238281 5.328125 18.25 5.328125 L 9.816406 5.328125 C 9.363281 5.304688 8.914062 5.332031 8.46875 5.40625 C 8.023438 5.476562 7.589844 5.59375 7.167969 5.757812 C 6.746094 5.921875 6.34375 6.128906 5.964844 6.375 C 5.585938 6.621094 5.234375 6.90625 4.917969 7.226562 C 4.597656 7.546875 4.3125 7.894531 4.066406 8.277344 C 3.820312 8.65625 3.613281 9.054688 3.453125 9.476562 C 3.289062 9.898438 3.171875 10.335938 3.097656 10.78125 C 3.027344 11.226562 3 11.675781 3.023438 12.128906 C 3.023438 12.574219 3.066406 13.015625 3.15625 13.453125 C 3.242188 13.890625 3.371094 14.3125 3.542969 14.722656 C 3.714844 15.136719 3.921875 15.527344 4.171875 15.894531 C 4.417969 16.265625 4.699219 16.609375 5.015625 16.925781 C 5.328125 17.238281 5.671875 17.519531 6.042969 17.769531 C 6.414062 18.015625 6.804688 18.226562 7.214844 18.394531 C 7.625 18.566406 8.050781 18.695312 8.488281 18.785156 C 8.921875 18.871094 9.363281 18.914062 9.808594 18.917969 L 18.25 18.917969 C 19.464844 18.914062 20.667969 19.019531 21.867188 19.222656 C 23.066406 19.425781 24.238281 19.730469 25.382812 20.132812 C 26.527344 20.535156 27.632812 21.027344 28.695312 21.617188 C 29.757812 22.207031 30.761719 22.882812 31.710938 23.640625 C 32.660156 24.402344 33.535156 25.234375 34.34375 26.144531 C 35.152344 27.050781 35.875 28.019531 36.519531 29.050781 C 37.160156 30.082031 37.710938 31.160156 38.171875 32.285156 C 38.632812 33.40625 38.996094 34.5625 39.261719 35.746094 L 60.535156 131.332031 C 60.589844 131.546875 60.652344 131.78125 60.722656 132 C 61.070312 133.035156 61.492188 134.035156 61.996094 135.007812 C 62.496094 135.976562 63.070312 136.902344 63.71875 137.78125 C 64.363281 138.660156 65.078125 139.484375 65.851562 140.253906 C 66.628906 141.023438 67.457031 141.726562 68.34375 142.363281 C 69.230469 143.003906 70.160156 143.566406 71.136719 144.0625 C 72.109375 144.554688 73.117188 144.96875 74.15625 145.304688 C 75.195312 145.640625 76.253906 145.890625 77.332031 146.0625 C 78.410156 146.230469 79.496094 146.316406 80.585938 146.316406 L 174.898438 146.316406 C 175.867188 146.316406 176.828125 146.25 177.789062 146.117188 C 178.746094 145.984375 179.691406 145.785156 180.621094 145.519531 C 181.554688 145.253906 182.460938 144.925781 183.347656 144.535156 C 184.234375 144.144531 185.085938 143.695312 185.910156 143.1875 C 186.734375 142.679688 187.515625 142.117188 188.261719 141.496094 C 189.007812 140.878906 189.707031 140.214844 190.359375 139.5 C 191.011719 138.785156 191.613281 138.03125 192.160156 137.230469 C 192.707031 136.433594 193.199219 135.601562 193.632812 134.738281 C 199.152344 123.683594 210.207031 88.972656 217.996094 73.390625 C 218.191406 72.992188 218.378906 72.589844 218.550781 72.179688 C 218.726562 71.773438 218.882812 71.359375 219.03125 70.9375 C 219.179688 70.519531 219.3125 70.097656 219.429688 69.667969 C 219.550781 69.242188 219.65625 68.808594 219.75 68.375 C 219.839844 67.941406 219.921875 67.503906 219.984375 67.066406 C 220.050781 66.625 220.101562 66.183594 220.136719 65.742188 C 220.171875 65.300781 220.195312 64.855469 220.203125 64.414062 C 220.210938 63.96875 220.207031 63.527344 220.1875 63.082031 C 220.167969 62.636719 220.132812 62.195312 220.085938 61.753906 C 220.035156 61.3125 219.972656 60.875 219.898438 60.4375 C 219.820312 60 219.730469 59.5625 219.628906 59.132812 C 219.523438 58.699219 219.40625 58.273438 219.277344 57.847656 C 219.144531 57.421875 219 57.003906 218.84375 56.589844 C 218.6875 56.171875 218.515625 55.765625 218.332031 55.359375 C 218.148438 54.957031 217.953125 54.558594 217.742188 54.164062 C 217.535156 53.773438 217.3125 53.390625 217.078125 53.011719 C 216.847656 52.632812 216.601562 52.261719 216.34375 51.902344 C 216.085938 51.539062 215.820312 51.1875 215.539062 50.839844 C 215.261719 50.496094 214.96875 50.160156 214.667969 49.832031 C 214.367188 49.507812 214.058594 49.191406 213.738281 48.882812 C 213.414062 48.574219 213.085938 48.28125 212.746094 47.992188 C 212.40625 47.707031 212.058594 47.433594 211.699219 47.167969 C 211.34375 46.90625 210.976562 46.652344 210.605469 46.414062 C 210.230469 46.171875 209.851562 45.945312 209.460938 45.726562 C 209.074219 45.511719 208.679688 45.308594 208.28125 45.117188 C 207.878906 44.925781 207.472656 44.746094 207.058594 44.582031 C 206.648438 44.417969 206.230469 44.265625 205.808594 44.125 C 205.386719 43.988281 204.960938 43.863281 204.53125 43.75 C 204.101562 43.640625 203.667969 43.542969 203.234375 43.457031 C 202.796875 43.375 202.359375 43.304688 201.917969 43.246094 C 201.476562 43.191406 201.035156 43.148438 200.59375 43.121094 C 200.148438 43.09375 199.707031 43.078125 199.261719 43.078125 Z M 199.261719 43.078125 " fill-opacity="1" fill-rule="evenodd"/></g><path fill="#545454" d="M 87.964844 154.273438 C 87.054688 154.273438 86.148438 154.320312 85.246094 154.410156 C 84.34375 154.496094 83.445312 154.628906 82.554688 154.808594 C 81.664062 154.984375 80.785156 155.207031 79.914062 155.46875 C 79.046875 155.734375 78.191406 156.039062 77.351562 156.386719 C 76.511719 156.734375 75.691406 157.121094 74.890625 157.550781 C 74.089844 157.976562 73.3125 158.445312 72.558594 158.949219 C 71.800781 159.453125 71.074219 159.992188 70.371094 160.570312 C 69.667969 161.144531 68.996094 161.753906 68.355469 162.398438 C 67.714844 163.039062 67.105469 163.710938 66.527344 164.414062 C 65.953125 165.117188 65.410156 165.84375 64.90625 166.601562 C 64.402344 167.355469 63.9375 168.132812 63.507812 168.933594 C 63.078125 169.734375 62.691406 170.554688 62.34375 171.394531 C 61.996094 172.234375 61.691406 173.089844 61.429688 173.957031 C 61.164062 174.828125 60.945312 175.707031 60.765625 176.597656 C 60.589844 177.488281 60.457031 178.386719 60.367188 179.289062 C 60.277344 180.191406 60.234375 181.097656 60.234375 182.007812 C 60.234375 182.914062 60.277344 183.820312 60.367188 184.726562 C 60.457031 185.628906 60.589844 186.527344 60.769531 187.417969 C 60.945312 188.308594 61.164062 189.1875 61.429688 190.058594 C 61.691406 190.925781 62 191.78125 62.347656 192.621094 C 62.695312 193.457031 63.082031 194.277344 63.511719 195.078125 C 63.9375 195.878906 64.40625 196.660156 64.910156 197.414062 C 65.414062 198.167969 65.953125 198.898438 66.53125 199.597656 C 67.109375 200.300781 67.714844 200.972656 68.359375 201.613281 C 69 202.257812 69.671875 202.867188 70.375 203.441406 C 71.078125 204.019531 71.808594 204.558594 72.5625 205.0625 C 73.316406 205.566406 74.09375 206.035156 74.894531 206.460938 C 75.699219 206.890625 76.515625 207.277344 77.355469 207.625 C 78.195312 207.972656 79.050781 208.277344 79.917969 208.542969 C 80.789062 208.804688 81.667969 209.023438 82.558594 209.203125 C 83.449219 209.378906 84.347656 209.511719 85.25 209.601562 C 86.15625 209.691406 87.0625 209.734375 87.96875 209.734375 C 88.878906 209.734375 89.785156 209.6875 90.6875 209.601562 C 91.589844 209.511719 92.488281 209.378906 93.378906 209.199219 C 94.269531 209.023438 95.148438 208.800781 96.019531 208.539062 C 96.886719 208.273438 97.742188 207.96875 98.582031 207.621094 C 99.421875 207.273438 100.238281 206.886719 101.039062 206.457031 C 101.84375 206.027344 102.621094 205.5625 103.375 205.058594 C 104.128906 204.554688 104.859375 204.011719 105.558594 203.4375 C 106.261719 202.859375 106.933594 202.25 107.578125 201.609375 C 108.21875 200.964844 108.828125 200.292969 109.402344 199.589844 C 109.980469 198.890625 110.519531 198.160156 111.023438 197.40625 C 111.527344 196.648438 111.996094 195.871094 112.421875 195.070312 C 112.851562 194.269531 113.238281 193.449219 113.585938 192.609375 C 113.933594 191.769531 114.238281 190.917969 114.5 190.046875 C 114.765625 189.179688 114.984375 188.296875 115.164062 187.40625 C 115.339844 186.515625 115.472656 185.617188 115.5625 184.714844 C 115.648438 183.8125 115.695312 182.90625 115.695312 181.996094 C 115.691406 181.089844 115.648438 180.183594 115.558594 179.28125 C 115.46875 178.375 115.335938 177.480469 115.15625 176.589844 C 114.980469 175.699219 114.757812 174.820312 114.496094 173.949219 C 114.230469 173.082031 113.925781 172.230469 113.578125 171.390625 C 113.230469 170.550781 112.839844 169.730469 112.414062 168.929688 C 111.984375 168.132812 111.515625 167.351562 111.011719 166.597656 C 110.507812 165.84375 109.96875 165.117188 109.390625 164.414062 C 108.816406 163.710938 108.207031 163.039062 107.566406 162.398438 C 106.921875 161.757812 106.25 161.148438 105.546875 160.570312 C 104.847656 159.996094 104.117188 159.457031 103.363281 158.953125 C 102.609375 158.445312 101.832031 157.980469 101.03125 157.554688 C 100.230469 157.125 99.410156 156.738281 98.570312 156.390625 C 97.734375 156.042969 96.878906 155.734375 96.011719 155.472656 C 95.140625 155.207031 94.261719 154.988281 93.371094 154.808594 C 92.480469 154.632812 91.585938 154.5 90.679688 154.410156 C 89.777344 154.320312 88.871094 154.277344 87.964844 154.273438 Z M 87.964844 196.160156 C 87.035156 196.160156 86.113281 196.070312 85.203125 195.886719 C 84.292969 195.707031 83.40625 195.4375 82.546875 195.082031 C 81.6875 194.726562 80.875 194.292969 80.101562 193.773438 C 79.328125 193.257812 78.613281 192.671875 77.957031 192.015625 C 77.296875 191.359375 76.710938 190.644531 76.195312 189.871094 C 75.679688 189.097656 75.242188 188.28125 74.886719 187.421875 C 74.53125 186.566406 74.261719 185.679688 74.082031 184.769531 C 73.898438 183.855469 73.808594 182.9375 73.808594 182.007812 C 73.808594 181.078125 73.898438 180.15625 74.078125 179.246094 C 74.261719 178.335938 74.53125 177.449219 74.886719 176.589844 C 75.238281 175.730469 75.675781 174.914062 76.191406 174.144531 C 76.707031 173.371094 77.292969 172.65625 77.953125 171.996094 C 78.609375 171.339844 79.324219 170.753906 80.097656 170.238281 C 80.867188 169.71875 81.683594 169.285156 82.542969 168.929688 C 83.402344 168.574219 84.285156 168.304688 85.199219 168.121094 C 86.109375 167.941406 87.03125 167.847656 87.957031 167.847656 C 88.886719 167.847656 89.808594 167.9375 90.71875 168.121094 C 91.632812 168.300781 92.515625 168.570312 93.375 168.925781 C 94.234375 169.28125 95.050781 169.714844 95.824219 170.230469 C 96.597656 170.746094 97.3125 171.332031 97.96875 171.992188 C 98.625 172.648438 99.214844 173.363281 99.730469 174.132812 C 100.246094 174.90625 100.683594 175.722656 101.039062 176.582031 C 101.394531 177.4375 101.664062 178.324219 101.847656 179.234375 C 102.027344 180.148438 102.121094 181.066406 102.121094 181.996094 C 102.121094 182.925781 102.027344 183.847656 101.847656 184.757812 C 101.664062 185.671875 101.394531 186.554688 101.039062 187.414062 C 100.683594 188.273438 100.25 189.089844 99.730469 189.863281 C 99.214844 190.632812 98.628906 191.347656 97.972656 192.007812 C 97.316406 192.664062 96.601562 193.25 95.828125 193.769531 C 95.054688 194.285156 94.238281 194.722656 93.378906 195.078125 C 92.523438 195.433594 91.636719 195.703125 90.726562 195.886719 C 89.8125 196.066406 88.894531 196.160156 87.964844 196.160156 Z M 87.964844 196.160156 " fill-opacity="1" fill-rule="evenodd"/><path fill="#545454" d="M 165.25 154.273438 C 164.339844 154.273438 163.4375 154.320312 162.53125 154.410156 C 161.628906 154.496094 160.730469 154.628906 159.839844 154.808594 C 158.949219 154.984375 158.070312 155.207031 157.199219 155.46875 C 156.332031 155.734375 155.476562 156.039062 154.636719 156.386719 C 153.796875 156.734375 152.980469 157.121094 152.175781 157.550781 C 151.375 157.976562 150.597656 158.445312 149.84375 158.949219 C 149.089844 159.453125 148.359375 159.992188 147.65625 160.570312 C 146.957031 161.144531 146.285156 161.753906 145.640625 162.398438 C 145 163.039062 144.390625 163.710938 143.8125 164.414062 C 143.238281 165.117188 142.699219 165.84375 142.191406 166.601562 C 141.6875 167.355469 141.222656 168.132812 140.792969 168.933594 C 140.367188 169.734375 139.976562 170.554688 139.628906 171.394531 C 139.28125 172.234375 138.976562 173.089844 138.714844 173.957031 C 138.449219 174.828125 138.230469 175.707031 138.054688 176.597656 C 137.875 177.488281 137.742188 178.386719 137.652344 179.289062 C 137.566406 180.191406 137.519531 181.097656 137.519531 182.007812 C 137.519531 182.914062 137.566406 183.820312 137.652344 184.726562 C 137.742188 185.628906 137.875 186.527344 138.054688 187.417969 C 138.230469 188.308594 138.453125 189.1875 138.714844 190.058594 C 138.980469 190.925781 139.285156 191.78125 139.632812 192.621094 C 139.980469 193.457031 140.367188 194.277344 140.796875 195.078125 C 141.222656 195.878906 141.691406 196.660156 142.195312 197.414062 C 142.699219 198.167969 143.242188 198.898438 143.816406 199.597656 C 144.394531 200.300781 145.003906 200.972656 145.644531 201.613281 C 146.289062 202.257812 146.960938 202.867188 147.660156 203.441406 C 148.363281 204.019531 149.09375 204.558594 149.847656 205.0625 C 150.601562 205.566406 151.382812 206.035156 152.183594 206.460938 C 152.984375 206.890625 153.804688 207.277344 154.640625 207.625 C 155.480469 207.972656 156.335938 208.277344 157.203125 208.542969 C 158.074219 208.804688 158.953125 209.023438 159.84375 209.203125 C 160.734375 209.378906 161.632812 209.511719 162.535156 209.601562 C 163.441406 209.691406 164.347656 209.734375 165.253906 209.734375 C 166.164062 209.734375 167.070312 209.6875 167.972656 209.601562 C 168.878906 209.511719 169.773438 209.378906 170.664062 209.199219 C 171.554688 209.023438 172.4375 208.800781 173.304688 208.539062 C 174.175781 208.273438 175.027344 207.96875 175.867188 207.621094 C 176.707031 207.273438 177.527344 206.886719 178.328125 206.457031 C 179.128906 206.027344 179.90625 205.5625 180.660156 205.058594 C 181.414062 204.554688 182.144531 204.011719 182.847656 203.4375 C 183.546875 202.859375 184.21875 202.25 184.863281 201.609375 C 185.503906 200.964844 186.113281 200.292969 186.6875 199.589844 C 187.265625 198.890625 187.804688 198.160156 188.308594 197.40625 C 188.8125 196.648438 189.28125 195.871094 189.707031 195.070312 C 190.136719 194.269531 190.523438 193.449219 190.871094 192.609375 C 191.21875 191.769531 191.523438 190.917969 191.789062 190.046875 C 192.050781 189.179688 192.269531 188.296875 192.449219 187.40625 C 192.625 186.515625 192.757812 185.617188 192.847656 184.714844 C 192.933594 183.8125 192.980469 182.90625 192.980469 181.996094 C 192.980469 181.089844 192.933594 180.183594 192.84375 179.28125 C 192.753906 178.375 192.621094 177.480469 192.445312 176.589844 C 192.265625 175.699219 192.046875 174.820312 191.78125 173.949219 C 191.519531 173.082031 191.210938 172.226562 190.863281 171.390625 C 190.515625 170.550781 190.128906 169.730469 189.699219 168.929688 C 189.273438 168.128906 188.804688 167.351562 188.300781 166.597656 C 187.796875 165.84375 187.257812 165.113281 186.679688 164.410156 C 186.105469 163.710938 185.496094 163.039062 184.851562 162.394531 C 184.210938 161.753906 183.539062 161.144531 182.835938 160.570312 C 182.136719 159.992188 181.40625 159.453125 180.652344 158.949219 C 179.894531 158.445312 179.117188 157.980469 178.316406 157.550781 C 177.515625 157.121094 176.699219 156.734375 175.859375 156.386719 C 175.019531 156.039062 174.164062 155.734375 173.296875 155.46875 C 172.429688 155.207031 171.546875 154.988281 170.660156 154.808594 C 169.769531 154.632812 168.871094 154.5 167.96875 154.410156 C 167.0625 154.320312 166.15625 154.277344 165.25 154.273438 Z M 165.25 196.160156 C 164.320312 196.160156 163.398438 196.070312 162.488281 195.886719 C 161.578125 195.707031 160.691406 195.4375 159.832031 195.082031 C 158.976562 194.726562 158.160156 194.292969 157.386719 193.773438 C 156.613281 193.257812 155.898438 192.671875 155.242188 192.015625 C 154.585938 191.359375 153.996094 190.644531 153.480469 189.871094 C 152.964844 189.097656 152.527344 188.28125 152.171875 187.421875 C 151.816406 186.566406 151.546875 185.679688 151.367188 184.769531 C 151.183594 183.855469 151.09375 182.9375 151.09375 182.007812 C 151.09375 181.078125 151.183594 180.15625 151.367188 179.246094 C 151.546875 178.335938 151.816406 177.449219 152.171875 176.589844 C 152.527344 175.730469 152.960938 174.917969 153.476562 174.144531 C 153.996094 173.371094 154.582031 172.65625 155.238281 171.996094 C 155.894531 171.339844 156.609375 170.753906 157.382812 170.238281 C 158.15625 169.71875 158.96875 169.285156 159.828125 168.929688 C 160.6875 168.574219 161.570312 168.304688 162.484375 168.121094 C 163.394531 167.941406 164.316406 167.847656 165.246094 167.847656 C 166.175781 167.847656 167.09375 167.9375 168.007812 168.121094 C 168.917969 168.300781 169.804688 168.570312 170.660156 168.925781 C 171.519531 169.28125 172.335938 169.714844 173.109375 170.230469 C 173.882812 170.746094 174.597656 171.332031 175.253906 171.992188 C 175.914062 172.648438 176.5 173.363281 177.015625 174.132812 C 177.53125 174.90625 177.96875 175.722656 178.324219 176.582031 C 178.679688 177.4375 178.949219 178.324219 179.132812 179.234375 C 179.3125 180.148438 179.40625 181.066406 179.40625 181.996094 C 179.40625 182.925781 179.3125 183.847656 179.132812 184.757812 C 178.949219 185.671875 178.683594 186.554688 178.324219 187.414062 C 177.96875 188.273438 177.535156 189.089844 177.019531 189.863281 C 176.5 190.632812 175.914062 191.347656 175.257812 192.007812 C 174.601562 192.664062 173.886719 193.25 173.113281 193.769531 C 172.339844 194.285156 171.523438 194.722656 170.667969 195.078125 C 169.808594 195.433594 168.921875 195.703125 168.011719 195.886719 C 167.101562 196.066406 166.179688 196.160156 165.25 196.160156 Z M 165.25 196.160156 " fill-opacity="1" fill-rule="evenodd"/></svg>