<svg xmlns="http://www.w3.org/2000/svg" xmlns:xlink="http://www.w3.org/1999/xlink" width="300" zoomAndPan="magnify" viewBox="0 0 224.87999 225" height="300" preserveAspectRatio="xMidYMid meet" version="1.0"><defs><clipPath id="ce4fe0d3d7"><path d="M 11 3.082031 L 209 3.082031 L 209 218.21875 L 11 218.21875 Z M 11 3.082031 " clip-rule="nonzero"/></clipPath></defs><g clip-path="url(#ce4fe0d3d7)"><path fill="#545454" d="M 109.53125 110.566406 C 79.863281 110.566406 55.789062 86.496094 55.789062 56.824219 C 55.789062 27.15625 79.863281 3.082031 109.53125 3.082031 C 139.203125 3.082031 163.273438 27.15625 163.273438 56.824219 C 163.273438 86.496094 139.203125 110.566406 109.53125 110.566406 Z M 109.53125 101.609375 C 134.257812 101.609375 154.316406 81.550781 154.316406 56.824219 C 154.316406 32.101562 134.257812 12.039062 109.53125 12.039062 C 84.808594 12.039062 64.746094 32.101562 64.746094 56.824219 C 64.746094 81.550781 84.808594 101.609375 109.53125 101.609375 Z M 11.003906 213.574219 L 11.003906 195.660156 C 11.003906 159.414062 35.214844 128.484375 82.660156 128.484375 L 136.402344 128.484375 C 183.847656 128.484375 208.0625 159.414062 208.0625 195.660156 L 208.0625 213.574219 C 208.0625 216.046875 206.054688 218.054688 203.582031 218.054688 L 15.480469 218.054688 C 13.007812 218.054688 11.003906 216.046875 11.003906 213.574219 Z M 82.660156 137.441406 C 40.722656 137.441406 19.960938 163.984375 19.960938 195.660156 L 19.960938 209.097656 L 199.105469 209.097656 L 199.105469 195.660156 C 199.105469 163.984375 178.34375 137.441406 136.402344 137.441406 Z M 82.660156 137.441406 " fill-opacity="1" fill-rule="evenodd"/></g></svg>