<?xml version="1.0" encoding="UTF-8"?>
<svg id="Layer_2" data-name="Layer 2" xmlns="http://www.w3.org/2000/svg" xmlns:xlink="http://www.w3.org/1999/xlink" viewBox="0 0 22.02 36.96">
  <defs>
    <style>
      .cls-1 {
        fill: none;
      }

      .cls-1, .cls-2 {
        stroke-width: 0px;
      }

      .cls-3 {
        clip-path: url(#clippath);
      }

      .cls-2 {
        fill: #177e3f;
      }
    </style>
    <clipPath id="clippath">
      <rect class="cls-1" width="22.02" height="36.96"/>
    </clipPath>
  </defs>
  <g id="Layer_1-2" data-name="Layer 1">
    <g class="cls-3">
      <path class="cls-2" d="M18.79,15.38l-1.82-2.72c-.08-1.08.05-2.22-.02-3.3-.45-7.45-9.42-7.48-10.1-.29.26,5.67-.33,11.72,0,17.34.25,4.31,3.52,6.4,7.07,5.36.91-.27,1.76-.85,2.37-1.67.08-.11.2-.15.17-.33-2.26,1.96-5.75,1.04-6.93-1.89,1.55,2.24,4.1,3.32,6.46,1.98.83-.47,1.05-.91,1.33-1.9.57-2.07.38-4.21.14-6.33l.31,1.21c.92,4.69-.09,10.21-4.88,11.17-3.97.8-7.61-2.73-7.87-7.22-.33-5.82.26-12.05,0-17.91.49-7.07,8.25-9.92,12.27-4.35.66.91,1.51,2.99,1.51,4.17v6.68Z"/>
      <path class="cls-2" d="M18.54,25.33c-.12,0-.15-.34-.16-.44-.03-.34.02-.7-.01-1.03-.3-3.02-1.43-5.74-3.38-7.82l1.33,3.03c.76,2.26,1.09,4.7.71,7.1-2.34-.15-4.44-1.38-5.13-4.07-.95-3.72.45-7.77-.96-11.37,5.42,1.6,10.45,8.08,7.6,14.59Z"/>
      <path class="cls-2" d="M8.35,25.09c.13,1.56.79,3.02,1.59,4.26-.06.14-.2-.02-.28-.06-2.64-1.49-2.97-5.73-1.95-8.54l.65-1.49c.62,2.82,3.93,4.4,3.58,7.62-.04.4-.75,2.3-1.11,2.23-.91-.93-1.55-2.15-1.98-3.45l-.5-2.04c.03.48-.04,1,0,1.47Z"/>
      <path class="cls-2" d="M2.68,19.93s.06.22-.05.29c-1.11.72-2.45-1.59-1.16-2.47l.12.19c-.1-.4.43-.41.69-.36.93.17,1.37,1.78.69,2.36-.14.12-.29-.03-.29-.01Z"/>
      <path class="cls-2" d="M20.71,27.42v.57c-1.96.41-2.12-3.02-.13-2.65.95.18,1.22,1.97.34,2.55l-.21-.47Z"/>
      <path class="cls-2" d="M14.53,5.53c-.42-.21-.82-.47-1.27-.6-1.59-.44-3.2-.04-4.41,1.21l-1.08,1.75c.78-3.25,4.51-4.54,6.76-2.37Z"/>
      <path class="cls-2" d="M19.35,28.76c.94-.1,1.01,1.58.06,1.58-.87,0-.96-1.48-.06-1.58Z"/>
      <path class="cls-2" d="M2.57,15.21c.94-.23,1.15,1.2.44,1.45-1.05.38-1.23-1.26-.44-1.45Z"/>
    </g>
  </g>
</svg>